<svg xmlns="http://www.w3.org/2000/svg" viewBox="0 0 800 360" fill="none" role="img" aria-label="shadcn documentation hero">
  <rect width="800" height="360" rx="20" fill="#09090b"/>
  <circle cx="130" cy="70" r="190" fill="#27272a"/>
  <circle cx="670" cy="300" r="180" fill="#18181b"/>
  <circle cx="650" cy="50" r="110" fill="#3f3f46"/>
  <circle cx="110" cy="320" r="120" fill="#09090b"/>
  <circle cx="400" cy="180" r="86" fill="#fafafa"/>
  <path d="M394 220 Q391 178 400 140 Q409 178 406 220 Z" fill="#fafafa" transform="rotate(-55 400 220)"/>
  <path d="M394 220 Q391 176 400 136 Q409 176 406 220 Z" fill="#fafafa" transform="rotate(-27 400 220)"/>
  <path d="M394 220 Q391 174 400 132 Q409 174 406 220 Z" fill="#fafafa"/>
  <path d="M394 220 Q391 176 400 136 Q409 176 406 220 Z" fill="#fafafa" transform="rotate(27 400 220)"/>
  <path d="M394 220 Q391 178 400 140 Q409 178 406 220 Z" fill="#fafafa" transform="rotate(55 400 220)"/>
</svg>
